<?xml version="1.0" encoding="iso-8859-1"?>
<!-- Generator: Adobe Illustrator 19.0.0, SVG Export Plug-In . SVG Version: 6.00 Build 0)  -->
<svg version="1.1" id="Layer_1" xmlns="http://www.w3.org/2000/svg" xmlns:xlink="http://www.w3.org/1999/xlink" x="0px" y="0px"
	 viewBox="0 0 512 512" style="enable-background:new 0 0 512 512;" xml:space="preserve">
<path style="fill:#7AB9E8;" d="M325.599,284.125c45.67-24.752,76.687-73.101,76.687-128.697C402.286,74.637,336.792,9.143,256,9.143
	S109.714,74.637,109.714,155.429c0,55.596,31.016,103.945,76.687,128.697C90.565,293.047,0,387.476,0,502.857h512
	C512,387.476,421.435,293.047,325.599,284.125z"/>
<path style="fill:#579ADF;" d="M256,502.857h256c0-115.381-90.565-209.81-186.401-218.732
	c45.67-24.752,76.687-73.101,76.687-128.697C402.286,74.637,336.792,9.143,256,9.143V502.857z"/>
<g>
</g>
<g>
</g>
<g>
</g>
<g>
</g>
<g>
</g>
<g>
</g>
<g>
</g>
<g>
</g>
<g>
</g>
<g>
</g>
<g>
</g>
<g>
</g>
<g>
</g>
<g>
</g>
<g>
</g>
</svg>
