<svg xmlns="http://www.w3.org/2000/svg" xmlns:xlink="http://www.w3.org/1999/xlink" viewBox="0 0 319.78 27.57"><defs><style>.cls-1,.cls-2,.cls-4{fill:none;}.cls-1{clip-rule:evenodd;}.cls-3{clip-path:url(#clip-path);}.cls-4,.cls-8{stroke:#000;stroke-miterlimit:10;}.cls-4{stroke-linecap:square;stroke-width:0;}.cls-5{fill-rule:evenodd;}.cls-6{clip-path:url(#clip-path-2);}.cls-7{clip-path:url(#clip-path-3);}.cls-8{stroke-width:0.31px;}.cls-9{clip-path:url(#clip-path-4);}.cls-10{clip-path:url(#clip-path-5);}.cls-11{clip-path:url(#clip-path-6);}.cls-12{clip-path:url(#clip-path-7);}.cls-13{clip-path:url(#clip-path-8);}.cls-14{clip-path:url(#clip-path-9);}.cls-15{clip-path:url(#clip-path-10);}.cls-16{clip-path:url(#clip-path-11);}.cls-17{clip-path:url(#clip-path-12);}.cls-18{clip-path:url(#clip-path-13);}.cls-19{clip-path:url(#clip-path-14);}.cls-20{clip-path:url(#clip-path-15);}.cls-21{clip-path:url(#clip-path-16);}.cls-22{clip-path:url(#clip-path-17);}.cls-23{clip-path:url(#clip-path-18);}.cls-24{clip-path:url(#clip-path-19);}.cls-25{clip-path:url(#clip-path-20);}.cls-26{clip-path:url(#clip-path-21);}.cls-27{clip-path:url(#clip-path-22);}.cls-28{clip-path:url(#clip-path-23);}.cls-29{clip-path:url(#clip-path-24);}.cls-30{clip-path:url(#clip-path-25);}.cls-31{clip-path:url(#clip-path-26);}.cls-32{clip-path:url(#clip-path-27);}</style><clipPath id="clip-path" transform="translate(0 -4.66)"><polygon class="cls-1" points="0.78 0 319 0 319 33.41 0.78 33.41 0.78 0 0.78 0"/></clipPath><clipPath id="clip-path-2" transform="translate(0 -4.66)"><polygon class="cls-1" points="1.56 33.41 14.01 33.41 14.01 17.09 1.56 17.09 1.56 33.41 1.56 33.41"/></clipPath><clipPath id="clip-path-3" transform="translate(0 -4.66)"><rect class="cls-2" x="1.56" y="17.09" width="12.45" height="16.31"/></clipPath><clipPath id="clip-path-4" transform="translate(0 -4.66)"><polygon class="cls-1" points="12.45 33.41 43.57 33.41 43.57 17.09 12.45 17.09 12.45 33.41 12.45 33.41"/></clipPath><clipPath id="clip-path-5" transform="translate(0 -4.66)"><rect class="cls-2" x="12.45" y="17.09" width="31.12" height="16.31"/></clipPath><clipPath id="clip-path-6" transform="translate(0 -4.66)"><polygon class="cls-1" points="38.9 33.41 69.25 33.41 69.25 16.32 38.9 16.32 38.9 33.41 38.9 33.41"/></clipPath><clipPath id="clip-path-7" transform="translate(0 -4.66)"><rect class="cls-2" x="38.9" y="16.31" width="30.34" height="17.09"/></clipPath><clipPath id="clip-path-8" transform="translate(0 -4.66)"><polygon class="cls-1" points="65.36 33.41 95.7 33.41 95.7 16.32 65.36 16.32 65.36 33.41 65.36 33.41"/></clipPath><clipPath id="clip-path-9" transform="translate(0 -4.66)"><rect class="cls-2" x="65.36" y="16.31" width="30.34" height="17.09"/></clipPath><clipPath id="clip-path-10" transform="translate(0 -4.66)"><polygon class="cls-1" points="91.81 33.41 122.93 33.41 122.93 16.32 91.81 16.32 91.81 33.41 91.81 33.41"/></clipPath><clipPath id="clip-path-11" transform="translate(0 -4.66)"><rect class="cls-2" x="91.81" y="16.31" width="31.12" height="17.09"/></clipPath><clipPath id="clip-path-12" transform="translate(0 -4.66)"><polygon class="cls-1" points="119.04 33.41 149.39 33.41 149.39 17.09 119.04 17.09 119.04 33.41 119.04 33.41"/></clipPath><clipPath id="clip-path-13" transform="translate(0 -4.66)"><rect class="cls-2" x="119.04" y="17.09" width="30.34" height="16.31"/></clipPath><clipPath id="clip-path-14" transform="translate(0 -4.66)"><polygon class="cls-1" points="144.72 33.41 175.06 33.41 175.06 17.09 144.72 17.09 144.72 33.41 144.72 33.41"/></clipPath><clipPath id="clip-path-15" transform="translate(0 -4.66)"><rect class="cls-2" x="144.72" y="17.09" width="30.34" height="16.31"/></clipPath><clipPath id="clip-path-16" transform="translate(0 -4.66)"><polygon class="cls-1" points="171.17 33.41 201.51 33.41 201.51 16.32 171.17 16.32 171.17 33.41 171.17 33.41"/></clipPath><clipPath id="clip-path-17" transform="translate(0 -4.66)"><rect class="cls-2" x="171.17" y="16.31" width="30.34" height="17.09"/></clipPath><clipPath id="clip-path-18" transform="translate(0 -4.66)"><polygon class="cls-1" points="201.51 33.41 231.86 33.41 231.86 16.32 201.51 16.32 201.51 33.41 201.51 33.41"/></clipPath><clipPath id="clip-path-19" transform="translate(0 -4.66)"><rect class="cls-2" x="201.52" y="16.31" width="30.34" height="17.09"/></clipPath><clipPath id="clip-path-20" transform="translate(0 -4.66)"><polygon class="cls-1" points="227.19 33.41 258.31 33.41 258.31 16.32 227.19 16.32 227.19 33.41 227.19 33.41"/></clipPath><clipPath id="clip-path-21" transform="translate(0 -4.66)"><rect class="cls-2" x="227.19" y="16.31" width="31.12" height="17.09"/></clipPath><clipPath id="clip-path-22" transform="translate(0 -4.66)"><polygon class="cls-1" points="253.65 33.41 284.77 33.41 284.77 17.09 253.65 17.09 253.65 33.41 253.65 33.41"/></clipPath><clipPath id="clip-path-23" transform="translate(0 -4.66)"><rect class="cls-2" x="253.64" y="17.09" width="31.12" height="16.31"/></clipPath><clipPath id="clip-path-24" transform="translate(0 -4.66)"><polygon class="cls-1" points="279.32 33.41 309.66 33.41 309.66 16.32 279.32 16.32 279.32 33.41 279.32 33.41"/></clipPath><clipPath id="clip-path-25" transform="translate(0 -4.66)"><rect class="cls-2" x="279.32" y="16.31" width="30.34" height="17.09"/></clipPath><clipPath id="clip-path-26" transform="translate(0 -4.66)"><polygon class="cls-1" points="302.66 33.41 319 33.41 319 16.32 302.66 16.32 302.66 33.41 302.66 33.41"/></clipPath><clipPath id="clip-path-27" transform="translate(0 -4.66)"><rect class="cls-2" x="302.66" y="16.31" width="16.34" height="17.09"/></clipPath></defs><title>Asset 3</title><g id="Layer_2" data-name="Layer 2"><g id="Layer_1-2" data-name="Layer 1"><g class="cls-3"><line class="cls-4" x1="2.33" y1="12.43" x2="26.45" y2="12.43"/><polyline class="cls-5" points="2.33 12.43 2.33 13.21 26.45 13.21 26.45 12.43 2.33 12.43"/><line class="cls-4" x1="28.79" y1="12.43" x2="52.91" y2="12.43"/><polyline class="cls-5" points="28.79 12.43 28.79 13.21 52.91 13.21 52.91 12.43 28.79 12.43"/><line class="cls-4" x1="55.24" y1="12.43" x2="79.36" y2="12.43"/><polyline class="cls-5" points="55.24 12.43 55.24 13.21 79.36 13.21 79.36 12.43 55.24 12.43"/><line class="cls-4" x1="81.7" y1="12.43" x2="105.81" y2="12.43"/><polyline class="cls-5" points="81.69 12.43 81.69 13.21 105.81 13.21 105.81 12.43 81.69 12.43"/><line class="cls-4" x1="108.15" y1="12.43" x2="132.27" y2="12.43"/><polyline class="cls-5" points="108.15 12.43 108.15 13.21 132.27 13.21 132.27 12.43 108.15 12.43"/><line class="cls-4" x1="134.6" y1="12.43" x2="158.72" y2="12.43"/><polyline class="cls-5" points="134.6 12.43 134.6 13.21 158.72 13.21 158.72 12.43 134.6 12.43"/><line class="cls-4" x1="161.06" y1="12.43" x2="185.18" y2="12.43"/><polyline class="cls-5" points="161.06 12.43 161.06 13.21 185.18 13.21 185.18 12.43 161.06 12.43"/><line class="cls-4" x1="187.51" y1="12.43" x2="211.63" y2="12.43"/><polyline class="cls-5" points="187.51 12.43 187.51 13.21 211.63 13.21 211.63 12.43 187.51 12.43"/><line class="cls-4" x1="213.96" y1="12.43" x2="238.08" y2="12.43"/><polyline class="cls-5" points="213.96 12.43 213.96 13.21 238.08 13.21 238.08 12.43 213.96 12.43"/><line class="cls-4" x1="240.42" y1="12.43" x2="264.54" y2="12.43"/><polyline class="cls-5" points="240.42 12.43 240.42 13.21 264.54 13.21 264.54 12.43 240.42 12.43"/><line class="cls-4" x1="266.87" y1="12.43" x2="290.99" y2="12.43"/><polyline class="cls-5" points="266.87 12.43 266.87 13.21 290.99 13.21 290.99 12.43 266.87 12.43"/><polyline class="cls-5" points="0 0 0 13.21 2.33 13.21 2.33 0 0 0"/><polyline class="cls-5" points="26.45 0 26.45 13.21 28.79 13.21 28.79 0 26.45 0"/><polyline class="cls-5" points="52.91 0 52.91 13.21 55.24 13.21 55.24 0 52.91 0"/><polyline class="cls-5" points="79.36 0 79.36 13.21 81.69 13.21 81.69 0 79.36 0"/><polyline class="cls-5" points="105.81 0 105.81 13.21 108.15 13.21 108.15 0 105.81 0"/><polyline class="cls-5" points="132.27 0 132.27 13.21 134.6 13.21 134.6 0 132.27 0"/><polyline class="cls-5" points="158.72 0 158.72 13.21 161.06 13.21 161.06 0 158.72 0"/><polyline class="cls-5" points="185.18 0 185.18 13.21 187.51 13.21 187.51 0 185.18 0"/><polyline class="cls-5" points="211.63 0 211.63 13.21 213.96 13.21 213.96 0 211.63 0"/><polyline class="cls-5" points="238.08 0 238.08 13.21 240.42 13.21 240.42 0 238.08 0"/><polyline class="cls-5" points="264.54 0 264.54 13.21 266.87 13.21 266.87 0 264.54 0"/><polyline class="cls-5" points="290.99 0 290.99 13.21 293.32 13.21 293.32 0 290.99 0"/><polyline class="cls-5" points="317.44 0 317.44 13.21 319.78 13.21 319.78 0 317.44 0"/><line class="cls-4" x1="14" y1="3.88" x2="14" y2="13.21"/><polyline class="cls-5" points="14.01 3.88 14.01 13.21 14.78 13.21 14.78 3.88 14.01 3.88"/><line class="cls-4" x1="40.46" y1="3.88" x2="40.46" y2="13.21"/><polyline class="cls-5" points="40.46 3.88 40.46 13.21 41.24 13.21 41.24 3.88 40.46 3.88"/><line class="cls-4" x1="66.91" y1="3.88" x2="66.91" y2="13.21"/><polyline class="cls-5" points="66.91 3.88 66.91 13.21 67.69 13.21 67.69 3.88 66.91 3.88"/><line class="cls-4" x1="93.37" y1="3.88" x2="93.37" y2="13.21"/><polyline class="cls-5" points="93.37 3.88 93.37 13.21 94.14 13.21 94.14 3.88 93.37 3.88"/><line class="cls-4" x1="119.82" y1="3.88" x2="119.82" y2="13.21"/><polyline class="cls-5" points="119.82 3.88 119.82 13.21 120.6 13.21 120.6 3.88 119.82 3.88"/><line class="cls-4" x1="146.27" y1="3.88" x2="146.27" y2="13.21"/><polyline class="cls-5" points="146.27 3.88 146.27 13.21 147.05 13.21 147.05 3.88 146.27 3.88"/><line class="cls-4" x1="172.73" y1="3.88" x2="172.73" y2="13.21"/><polyline class="cls-5" points="172.73 3.88 172.73 13.21 173.5 13.21 173.5 3.88 172.73 3.88"/><line class="cls-4" x1="199.18" y1="3.88" x2="199.18" y2="13.21"/><polyline class="cls-5" points="199.18 3.88 199.18 13.21 199.96 13.21 199.96 3.88 199.18 3.88"/><line class="cls-4" x1="225.63" y1="3.88" x2="225.63" y2="13.21"/><polyline class="cls-5" points="225.63 3.88 225.63 13.21 226.41 13.21 226.41 3.88 225.63 3.88"/><line class="cls-4" x1="252.09" y1="3.88" x2="252.09" y2="13.21"/><polyline class="cls-5" points="252.09 3.88 252.09 13.21 252.87 13.21 252.87 3.88 252.09 3.88"/><line class="cls-4" x1="278.54" y1="3.88" x2="278.54" y2="13.21"/><polyline class="cls-5" points="278.54 3.88 278.54 13.21 279.32 13.21 279.32 3.88 278.54 3.88"/><line class="cls-4" x1="305" y1="3.88" x2="305" y2="13.21"/><polyline class="cls-5" points="305 3.88 305 13.21 305.77 13.21 305.77 3.88 305 3.88"/><line class="cls-4" x1="293.33" y1="12.43" x2="317.44" y2="12.43"/><polyline class="cls-5" points="293.32 12.43 293.32 13.21 317.44 13.21 317.44 12.43 293.32 12.43"/></g><g class="cls-6"><g class="cls-7"><path class="cls-8" d="M3.88,31.91a2.91,2.91,0,0,1-.77-.09,1.52,1.52,0,0,1-.57-.28,1.19,1.19,0,0,1-.35-.45,1.54,1.54,0,0,1-.12-.63V29.27a1.22,1.22,0,0,1,.2-.74,1.37,1.37,0,0,1,.47-.43,1.56,1.56,0,0,1,.46-.2,1.65,1.65,0,0,1-.57-.37A1.28,1.28,0,0,1,2.32,27a1.52,1.52,0,0,1-.1-.55v-.93a1.9,1.9,0,0,1,.21-1A1.26,1.26,0,0,1,3,24.07a2,2,0,0,1,.86-.17H5.36a1.73,1.73,0,0,1,.83.17,1.08,1.08,0,0,1,.5.53,2.33,2.33,0,0,1,.17,1v.93a1.52,1.52,0,0,1-.06.42,1.41,1.41,0,0,1-.46.7,1.65,1.65,0,0,1-.37.2,1.15,1.15,0,0,1,.56.25,1.17,1.17,0,0,1,.36.48,1.61,1.61,0,0,1,.12.63v1.29a1.49,1.49,0,0,1-.19.79,1.2,1.2,0,0,1-.57.49,2.07,2.07,0,0,1-.9.17Zm0-.24H5.35a1.59,1.59,0,0,0,1-.29,1.08,1.08,0,0,0,.36-.89V29.24a1.25,1.25,0,0,0-.33-1A1.87,1.87,0,0,0,5.27,28H3.86a2.69,2.69,0,0,0-.44.05,1.89,1.89,0,0,0-.51.21,1.18,1.18,0,0,0-.42.38,1.1,1.1,0,0,0-.16.62v1.25a1,1,0,0,0,.45.91A2.11,2.11,0,0,0,3.88,31.67Zm0-3.93H5.27a1.35,1.35,0,0,0,.77-.2,1.26,1.26,0,0,0,.56-1v-1a1.58,1.58,0,0,0-.31-1.11,1.2,1.2,0,0,0-.93-.33H3.88a1.39,1.39,0,0,0-1.08.35,1.61,1.61,0,0,0-.32,1.09v1a1.16,1.16,0,0,0,.34.83A1.32,1.32,0,0,0,3.86,27.74Z" transform="translate(0 -4.66)"/></g></g><g class="cls-9"><g class="cls-10"><path class="cls-8" d="M23.12,32V24.24l-1.83.67v-.18L23.12,24h.26V32Z" transform="translate(0 -4.66)"/><path class="cls-8" d="M27.49,32a2.51,2.51,0,0,1-.92-.17,1.44,1.44,0,0,1-.69-.55,1.8,1.8,0,0,1-.27-1V25.73a1.87,1.87,0,0,1,.25-1,1.57,1.57,0,0,1,.69-.58,2.23,2.23,0,0,1,.94-.2H29a2.09,2.09,0,0,1,1.07.24,1.36,1.36,0,0,1,.58.63,2.11,2.11,0,0,1,.18.89v4.51a1.62,1.62,0,0,1-.51,1.36A2.09,2.09,0,0,1,29,32Zm0-.24H29a1.56,1.56,0,0,0,1.21-.41,1.65,1.65,0,0,0,.36-1.11V25.73a1.5,1.5,0,0,0-.4-1.13A1.59,1.59,0,0,0,29,24.21H27.49a1.69,1.69,0,0,0-1.17.4,1.43,1.43,0,0,0-.44,1.12v4.51a1.39,1.39,0,0,0,.44,1.13A1.69,1.69,0,0,0,27.49,31.76Z" transform="translate(0 -4.66)"/></g></g><g class="cls-11"><g class="cls-12"><path class="cls-8" d="M49.12,31.53V23.78l-1.83.66v-.18l1.83-.78h.26v8.05Z" transform="translate(0 -4.66)"/><path class="cls-8" d="M51.25,31.53v-.24l3.19-3a6.57,6.57,0,0,0,.87-1,2.54,2.54,0,0,0,.45-.9,3.54,3.54,0,0,0,.14-1,2,2,0,0,0-.18-.85,1.31,1.31,0,0,0-.64-.61,3.24,3.24,0,0,0-1.36-.23H51.61v-.17l1.06,0,1.13,0a3.19,3.19,0,0,1,1.41.26,1.58,1.58,0,0,1,.73.69,2.33,2.33,0,0,1,.22,1A3.27,3.27,0,0,1,56,26.51a3.36,3.36,0,0,1-.49,1,6.53,6.53,0,0,1-.9,1l-3,2.8h4.83v.26Z" transform="translate(0 -4.66)"/></g></g><g class="cls-13"><g class="cls-14"><path class="cls-8" d="M75.49,31.45V23.7l-1.82.66v-.17l1.82-.79h.27v8.05Z" transform="translate(0 -4.66)"/><path class="cls-8" d="M81.37,31.43V29.15h-4l-.11-.25,3.35-5.41h.27l-3.35,5.42h3.82V26.32l.08-.6h.18v3.19h1.3v.17l-1.3.07v2.28Z" transform="translate(0 -4.66)"/></g></g><g class="cls-15"><g class="cls-16"><path class="cls-8" d="M102.25,31.37V23.62l-1.83.66v-.17l1.83-.78h.26v8Z" transform="translate(0 -4.66)"/><path class="cls-8" d="M106.73,31.38a1.73,1.73,0,0,1-.82-.18,1.48,1.48,0,0,1-.65-.62,4,4,0,0,1-.43-1.24,11.31,11.31,0,0,1-.15-2,7.39,7.39,0,0,1,.18-1.74,3.83,3.83,0,0,1,.52-1.24,2.19,2.19,0,0,1,.84-.74,2.57,2.57,0,0,1,1.13-.24l1,0c.38,0,.71,0,1,0v.18h-2a2,2,0,0,0-1.66.88,4.6,4.6,0,0,0-.65,2.72l.89,0,.94,0h.7a5.38,5.38,0,0,1,1.19.12,1.53,1.53,0,0,1,.82.45,1.42,1.42,0,0,1,.3,1v1.09a1.64,1.64,0,0,1-.25,1,1.37,1.37,0,0,1-.64.5,2.47,2.47,0,0,1-.86.15Zm0-.23H108a2.48,2.48,0,0,0,.73-.11,1.1,1.1,0,0,0,.56-.39,1.5,1.5,0,0,0,.21-.86V28.67a1.22,1.22,0,0,0-.25-.84,1.26,1.26,0,0,0-.72-.38,5.59,5.59,0,0,0-1.08-.09h-2.54a10.7,10.7,0,0,0,.13,1.87,3.53,3.53,0,0,0,.36,1.16A1.4,1.4,0,0,0,106,31,1.61,1.61,0,0,0,106.73,31.15Z" transform="translate(0 -4.66)"/></g></g><g class="cls-17"><g class="cls-18"><path class="cls-8" d="M129,32.08V24.32l-1.83.67v-.18L129,24h.26v8Z" transform="translate(0 -4.66)"/><path class="cls-8" d="M133.39,32.08a2.57,2.57,0,0,1-.77-.1,1.54,1.54,0,0,1-.56-.27,1.23,1.23,0,0,1-.36-.46,1.54,1.54,0,0,1-.12-.63V29.43a1.29,1.29,0,0,1,.2-.74,1.59,1.59,0,0,1,.47-.43,1.88,1.88,0,0,1,.46-.2,1.51,1.51,0,0,1-.56-.36,1.34,1.34,0,0,1-.32-.5,1.72,1.72,0,0,1-.1-.55v-.92a1.86,1.86,0,0,1,.22-1,1.24,1.24,0,0,1,.58-.53,2.13,2.13,0,0,1,.86-.17h1.48a1.86,1.86,0,0,1,.83.17,1.1,1.1,0,0,1,.51.53,2.42,2.42,0,0,1,.16,1v.92a1.47,1.47,0,0,1-.06.42,1.41,1.41,0,0,1-.46.7,1.23,1.23,0,0,1-.37.21,1.09,1.09,0,0,1,.57.24,1.3,1.3,0,0,1,.35.48,1.62,1.62,0,0,1,.13.64v1.28a1.53,1.53,0,0,1-.2.8,1.25,1.25,0,0,1-.57.49,2.16,2.16,0,0,1-.9.17Zm0-.24h1.47a1.6,1.6,0,0,0,1-.3,1.07,1.07,0,0,0,.36-.89V29.4a1.22,1.22,0,0,0-.34-1,1.78,1.78,0,0,0-1.15-.28h-1.4a2.07,2.07,0,0,0-.45.06,2.16,2.16,0,0,0-.51.2,1,1,0,0,0-.41.39,1.07,1.07,0,0,0-.17.61v1.25a1,1,0,0,0,.45.92A2.14,2.14,0,0,0,133.39,31.84Zm0-3.94h1.4a1.35,1.35,0,0,0,.77-.2,1.2,1.2,0,0,0,.43-.47,1.18,1.18,0,0,0,.13-.53v-.95a1.65,1.65,0,0,0-.3-1.12,1.24,1.24,0,0,0-.94-.33h-1.48a1.4,1.4,0,0,0-1.07.35,1.57,1.57,0,0,0-.32,1.1v.95a1.22,1.22,0,0,0,.33.84A1.39,1.39,0,0,0,133.38,27.9Z" transform="translate(0 -4.66)"/></g></g><g class="cls-19"><g class="cls-20"><path class="cls-8" d="M153.26,32v-.24l3.18-3a6.57,6.57,0,0,0,.87-1,2.85,2.85,0,0,0,.46-.9,4,4,0,0,0,.13-1,2,2,0,0,0-.18-.85,1.23,1.23,0,0,0-.64-.61,3.24,3.24,0,0,0-1.36-.23h-2.1V24l1-.05,1.14,0a3.18,3.18,0,0,1,1.4.26,1.54,1.54,0,0,1,.73.69,2.19,2.19,0,0,1,.22,1A3.57,3.57,0,0,1,158,27a4,4,0,0,1-.49,1,7.23,7.23,0,0,1-.91,1l-3,2.8h4.84V32Z" transform="translate(0 -4.66)"/><path class="cls-8" d="M161.72,32a2.55,2.55,0,0,1-.92-.17,1.44,1.44,0,0,1-.69-.55,1.8,1.8,0,0,1-.26-1V25.73a1.79,1.79,0,0,1,.25-1,1.49,1.49,0,0,1,.68-.58,2.23,2.23,0,0,1,.94-.2h1.46a2.09,2.09,0,0,1,1.07.24,1.31,1.31,0,0,1,.58.63,2.11,2.11,0,0,1,.18.89v4.51a1.62,1.62,0,0,1-.51,1.36,2.06,2.06,0,0,1-1.32.4Zm0-.24h1.46a1.55,1.55,0,0,0,1.21-.41,1.65,1.65,0,0,0,.36-1.11V25.73a1.54,1.54,0,0,0-.39-1.13,1.61,1.61,0,0,0-1.18-.39h-1.46a1.69,1.69,0,0,0-1.17.4,1.47,1.47,0,0,0-.44,1.12v4.51a1.42,1.42,0,0,0,.44,1.13A1.69,1.69,0,0,0,161.72,31.76Z" transform="translate(0 -4.66)"/></g></g><g class="cls-21"><g class="cls-22"><path class="cls-8" d="M179.63,31.53v-.24l3.18-3a6.7,6.7,0,0,0,.88-1,2.92,2.92,0,0,0,.45-.9,3.56,3.56,0,0,0,.13-1,2.11,2.11,0,0,0-.17-.85,1.31,1.31,0,0,0-.64-.61,3.29,3.29,0,0,0-1.37-.23H180v-.17l1.06,0,1.13,0a3.22,3.22,0,0,1,1.41.26,1.58,1.58,0,0,1,.73.69,2.33,2.33,0,0,1,.21,1,3.57,3.57,0,0,1-.15,1.06,3.36,3.36,0,0,1-.49,1,7.1,7.1,0,0,1-.9,1l-3,2.8h4.84v.26Z" transform="translate(0 -4.66)"/><path class="cls-8" d="M185.86,31.53v-.24l3.18-3a6.7,6.7,0,0,0,.88-1,2.92,2.92,0,0,0,.45-.9,3.56,3.56,0,0,0,.13-1,2.11,2.11,0,0,0-.17-.85,1.31,1.31,0,0,0-.64-.61,3.29,3.29,0,0,0-1.37-.23h-2.1v-.17l1.06,0,1.13,0a3.19,3.19,0,0,1,1.41.26,1.58,1.58,0,0,1,.73.69,2.33,2.33,0,0,1,.21,1,3.57,3.57,0,0,1-.15,1.06,3.36,3.36,0,0,1-.49,1,7.1,7.1,0,0,1-.9,1l-3,2.8h4.84v.26Z" transform="translate(0 -4.66)"/></g></g><g class="cls-23"><g class="cls-24"><path class="cls-8" d="M212,31.45a2.35,2.35,0,0,1-.92-.17,1.39,1.39,0,0,1-.69-.55,1.88,1.88,0,0,1-.26-1v-4.5a1.76,1.76,0,0,1,.25-1,1.56,1.56,0,0,1,.68-.59,2.26,2.26,0,0,1,.94-.2h1.46a2.09,2.09,0,0,1,1.07.24,1.41,1.41,0,0,1,.58.63,2.13,2.13,0,0,1,.18.9v4.5a1.61,1.61,0,0,1-.51,1.36,2.06,2.06,0,0,1-1.32.4Zm0-.24h1.46a1.51,1.51,0,0,0,1.21-.41,1.65,1.65,0,0,0,.36-1.11v-4.5a1.52,1.52,0,0,0-.39-1.13,1.58,1.58,0,0,0-1.18-.4H212a1.67,1.67,0,0,0-1.17.41,1.44,1.44,0,0,0-.44,1.12v4.5a1.45,1.45,0,0,0,.44,1.14A1.75,1.75,0,0,0,212,31.21Z" transform="translate(0 -4.66)"/></g></g><g class="cls-25"><g class="cls-26"><path class="cls-8" d="M235.75,31.37v-.24l3.18-3a7.33,7.33,0,0,0,.88-1,3.09,3.09,0,0,0,.45-.91,3.56,3.56,0,0,0,.13-1,2.15,2.15,0,0,0-.17-.85,1.39,1.39,0,0,0-.65-.61,3.23,3.23,0,0,0-1.36-.22h-2.1v-.18l1,0c.39,0,.77,0,1.14,0a3.19,3.19,0,0,1,1.4.25,1.51,1.51,0,0,1,.73.7,2.12,2.12,0,0,1,.22,1,3.53,3.53,0,0,1-.15,1.06,3.36,3.36,0,0,1-.49,1,7.26,7.26,0,0,1-.91,1l-3,2.79H241v.26Z" transform="translate(0 -4.66)"/></g></g><g class="cls-27"><g class="cls-28"><path class="cls-8" d="M266.24,32.06V29.77h-4l-.11-.25,3.34-5.4h.27l-3.34,5.41h3.81V26.94l.09-.6h.17v3.19h1.31v.18l-1.31.06v2.29Z" transform="translate(0 -4.66)"/></g></g><g class="cls-29"><g class="cls-30"><path class="cls-8" d="M290.09,31.64a1.86,1.86,0,0,1-.82-.18,1.6,1.6,0,0,1-.65-.62,3.8,3.8,0,0,1-.42-1.24,10.39,10.39,0,0,1-.16-2,7.51,7.51,0,0,1,.18-1.74,3.66,3.66,0,0,1,.53-1.23,2.1,2.1,0,0,1,.83-.74,2.57,2.57,0,0,1,1.13-.25l1,0,1,0v.17h-2.05a2,2,0,0,0-1.66.89,4.58,4.58,0,0,0-.65,2.71l.89,0,.94,0h.7a5.38,5.38,0,0,1,1.19.12,1.53,1.53,0,0,1,.82.45,1.41,1.41,0,0,1,.3,1V30a1.66,1.66,0,0,1-.24,1,1.36,1.36,0,0,1-.65.51,2.47,2.47,0,0,1-.86.15Zm0-.24h1.3a2.48,2.48,0,0,0,.73-.1,1,1,0,0,0,.56-.4,1.45,1.45,0,0,0,.21-.86V28.92a1.18,1.18,0,0,0-.25-.83,1.26,1.26,0,0,0-.71-.38,5.77,5.77,0,0,0-1.09-.09H288.3a11.87,11.87,0,0,0,.13,1.87,3.53,3.53,0,0,0,.36,1.16,1.31,1.31,0,0,0,.56.58A1.5,1.5,0,0,0,290.09,31.4Z" transform="translate(0 -4.66)"/></g></g><g class="cls-31"><g class="cls-32"><path class="cls-8" d="M313.77,31.53a3,3,0,0,1-.77-.09,1.69,1.69,0,0,1-.57-.28,1.23,1.23,0,0,1-.35-.46,1.54,1.54,0,0,1-.12-.63V28.89a1.2,1.2,0,0,1,.2-.74,1.4,1.4,0,0,1,.47-.44,1.8,1.8,0,0,1,.46-.19,1.81,1.81,0,0,1-.57-.37,1.35,1.35,0,0,1-.31-.49,1.54,1.54,0,0,1-.1-.56v-.92a1.9,1.9,0,0,1,.21-1,1.23,1.23,0,0,1,.59-.54,2.13,2.13,0,0,1,.86-.17h1.48a1.86,1.86,0,0,1,.83.17,1.06,1.06,0,0,1,.5.54,2.33,2.33,0,0,1,.17,1v.92a1.54,1.54,0,0,1-.06.43,1.46,1.46,0,0,1-.18.38,1.19,1.19,0,0,1-.28.31,1.23,1.23,0,0,1-.37.21,1.24,1.24,0,0,1,.56.24,1.32,1.32,0,0,1,.36.48,1.69,1.69,0,0,1,.12.64v1.28a1.51,1.51,0,0,1-.19.8,1.2,1.2,0,0,1-.57.49,2.22,2.22,0,0,1-.9.17Zm0-.24h1.47a1.65,1.65,0,0,0,1-.29,1.1,1.1,0,0,0,.36-.89V28.85a1.23,1.23,0,0,0-.33-1,1.84,1.84,0,0,0-1.15-.28h-1.4a2,2,0,0,0-.45.06,1.87,1.87,0,0,0-.51.2,1.31,1.31,0,0,0-.42.39,1.07,1.07,0,0,0-.16.61v1.26a1,1,0,0,0,.45.91A2.11,2.11,0,0,0,313.77,31.29Zm0-3.94h1.4a1.35,1.35,0,0,0,.77-.19,1.3,1.3,0,0,0,.56-1v-1a1.63,1.63,0,0,0-.31-1.12,1.2,1.2,0,0,0-.93-.33h-1.48a1.41,1.41,0,0,0-1.08.36,1.59,1.59,0,0,0-.32,1.09v1a1.16,1.16,0,0,0,.34.83A1.38,1.38,0,0,0,313.76,27.35Z" transform="translate(0 -4.66)"/></g></g></g></g></svg>